<?xml version="1.0" encoding="UTF-8" standalone="no"?>
<!DOCTYPE svg PUBLIC "-//W3C//DTD SVG 1.0//EN"
 "http://www.w3.org/TR/2001/REC-SVG-20010904/DTD/svg10.dtd" [
 <!ATTLIST svg xmlns:xlink CDATA #FIXED "http://www.w3.org/1999/xlink">
]>
<!-- Generated by Graphviz version 2.16 (Fri Feb  8 12:52:03 UTC 2008)
     For user: (stb) Sami Saada,,, -->
<!-- Title: _anonymous_0 Pages: 1 -->
<svg width="639pt" height="788pt"
 viewBox="0.00 0.00 639.00 788.00" xmlns="http://www.w3.org/2000/svg" xmlns:xlink="http://www.w3.org/1999/xlink">
<g id="graph0" class="graph" transform="scale(1 1) rotate(0) translate(4 784)">
<title>_anonymous_0</title>
<polygon style="fill:white;stroke:white;" points="-4,4 -4,-784 635,-784 635,4 -4,4"/>
<!-- state_q0 -->
<g id="node1" class="node"><title>state_q0</title>
<ellipse style="fill:none;stroke:black;" cx="188" cy="-758" rx="27" ry="18"/>
<ellipse style="fill:none;stroke:black;" cx="188" cy="-758" rx="31" ry="22"/>
<text text-anchor="middle" x="188" y="-753.65" style="font-family:Times New Roman;font-size:14.00;">q0</text>
</g>
<!-- state_alnum -->
<g id="node2" class="node"><title>state_alnum</title>
<ellipse style="fill:none;stroke:black;" cx="309" cy="-574" rx="31.0062" ry="18"/>
<ellipse style="fill:none;stroke:black;" cx="309" cy="-574" rx="34.9498" ry="22"/>
<text text-anchor="middle" x="309" y="-569.65" style="font-family:Times New Roman;font-size:14.00;">Alnum</text>
</g>
<!-- state_q0&#45;&gt;state_alnum -->
<g id="edge2" class="edge"><title>state_q0&#45;&gt;state_alnum</title>
<path style="fill:none;stroke:black;" d="M187,-736C187,-712 191,-675 208,-648 223,-624 249,-604 271,-592"/>
<polygon style="fill:black;stroke:black;" points="272.958,-594.916 280,-587 269.559,-588.797 272.958,-594.916"/>
<text text-anchor="middle" x="236" y="-661.65" style="font-family:Times New Roman;font-size:14.00;"> :alnum:, . </text>
</g>
<!-- state_bracketB -->
<g id="node4" class="node"><title>state_bracketB</title>
<ellipse style="fill:none;stroke:black;" cx="185" cy="-386" rx="38.9491" ry="18"/>
<text text-anchor="middle" x="185" y="-381.65" style="font-family:Times New Roman;font-size:14.00;">BracketB</text>
</g>
<!-- state_q0&#45;&gt;state_bracketB -->
<g id="edge4" class="edge"><title>state_q0&#45;&gt;state_bracketB</title>
<path style="fill:none;stroke:black;" d="M172,-739C159,-721 143,-693 142,-666 142,-666 142,-666 142,-478 143,-453 155,-429 166,-412"/>
<polygon style="fill:black;stroke:black;" points="169.365,-413.262 172,-403 163.541,-409.379 169.365,-413.262"/>
<text text-anchor="middle" x="148" y="-569.65" style="font-family:Times New Roman;font-size:14.00;"> [ </text>
</g>
<!-- state_startline -->
<g id="node7" class="node"><title>state_startline</title>
<ellipse style="fill:none;stroke:black;" cx="309" cy="-666" rx="35.0731" ry="18"/>
<text text-anchor="middle" x="309" y="-661.65" style="font-family:Times New Roman;font-size:14.00;">Startline</text>
</g>
<!-- state_q0&#45;&gt;state_startline -->
<g id="edge6" class="edge"><title>state_q0&#45;&gt;state_startline</title>
<path style="fill:none;stroke:black;" d="M209,-742C229,-726 259,-704 281,-687"/>
<polygon style="fill:black;stroke:black;" points="283.1,-689.8 289,-681 278.9,-684.2 283.1,-689.8"/>
<text text-anchor="middle" x="264" y="-705.65" style="font-family:Times New Roman;font-size:14.00;"> ^ </text>
</g>
<!-- state_endline -->
<g id="node8" class="node"><title>state_endline</title>
<ellipse style="fill:none;stroke:black;" cx="469" cy="-110" rx="33.2498" ry="18"/>
<ellipse style="fill:none;stroke:black;" cx="469" cy="-110" rx="37.1965" ry="22"/>
<text text-anchor="middle" x="469" y="-105.65" style="font-family:Times New Roman;font-size:14.00;">Endline</text>
</g>
<!-- state_q0&#45;&gt;state_endline -->
<g id="edge8" class="edge"><title>state_q0&#45;&gt;state_endline</title>
<path style="fill:none;stroke:black;" d="M219,-755C317,-743 617,-706 617,-666 617,-666 617,-666 617,-206 617,-156 558,-131 514,-119"/>
<polygon style="fill:black;stroke:black;" points="514.492,-115.529 504,-117 513.119,-122.393 514.492,-115.529"/>
<text text-anchor="middle" x="624" y="-425.65" style="font-family:Times New Roman;font-size:14.00;"> $ </text>
</g>
<!-- state_fail -->
<g id="node9" class="node"><title>state_fail</title>
<ellipse style="fill:none;stroke:black;" cx="244" cy="-18" rx="27" ry="18"/>
<text text-anchor="middle" x="244" y="-13.65" style="font-family:Times New Roman;font-size:14.00;">Fail</text>
</g>
<!-- state_q0&#45;&gt;state_fail -->
<g id="edge10" class="edge"><title>state_q0&#45;&gt;state_fail</title>
<path style="fill:none;stroke:black;" d="M159,-750C106,-735 0,-701 0,-666 0,-666 0,-666 0,-110 0,-71 33,-70 67,-54 113,-32 170,-24 207,-20"/>
<polygon style="fill:black;stroke:black;" points="207.398,-23.4778 217,-19 206.701,-16.5125 207.398,-23.4778"/>
<text text-anchor="middle" x="14" y="-381.65" style="font-family:Times New Roman;font-size:14.00;"> *, ] </text>
</g>
<!-- state_alnum&#45;&gt;state_alnum -->
<g id="edge12" class="edge"><title>state_alnum&#45;&gt;state_alnum</title>
<path style="fill:none;stroke:black;" d="M341,-583C353,-583 362,-580 362,-574 362,-570 358,-567 351,-566"/>
<polygon style="fill:black;stroke:black;" points="351.299,-562.512 341,-565 350.602,-569.478 351.299,-562.512"/>
<text text-anchor="middle" x="390" y="-569.65" style="font-family:Times New Roman;font-size:14.00;"> :alnum:, . </text>
</g>
<!-- state_alnumS -->
<g id="node3" class="node"><title>state_alnumS</title>
<ellipse style="fill:none;stroke:black;" cx="394" cy="-478" rx="42.24" ry="18"/>
<ellipse style="fill:none;stroke:black;" cx="394" cy="-478" rx="46.197" ry="22"/>
<text text-anchor="middle" x="394" y="-473.65" style="font-family:Times New Roman;font-size:14.00;">AlnumStar</text>
</g>
<!-- state_alnum&#45;&gt;state_alnumS -->
<g id="edge14" class="edge"><title>state_alnum&#45;&gt;state_alnumS</title>
<path style="fill:none;stroke:black;" d="M343,-568C363,-563 387,-553 400,-534 404,-527 405,-518 404,-510"/>
<polygon style="fill:black;stroke:black;" points="407.393,-509.119 402,-500 400.529,-510.492 407.393,-509.119"/>
<text text-anchor="middle" x="410" y="-521.65" style="font-family:Times New Roman;font-size:14.00;"> * </text>
</g>
<!-- state_alnum&#45;&gt;state_bracketB -->
<g id="edge18" class="edge"><title>state_alnum&#45;&gt;state_bracketB</title>
<path style="fill:none;stroke:black;" d="M301,-552C289,-521 265,-463 231,-422 226,-417 221,-412 216,-407"/>
<polygon style="fill:black;stroke:black;" points="218.1,-404.2 208,-401 213.9,-409.8 218.1,-404.2"/>
<text text-anchor="middle" x="284" y="-473.65" style="font-family:Times New Roman;font-size:14.00;"> [ </text>
</g>
<!-- state_alnum&#45;&gt;state_endline -->
<g id="edge16" class="edge"><title>state_alnum&#45;&gt;state_endline</title>
<path style="fill:none;stroke:black;" d="M343,-568C379,-561 432,-542 449,-500 497,-375 483,-211 474,-142"/>
<polygon style="fill:black;stroke:black;" points="477.478,-141.602 473,-132 470.512,-142.299 477.478,-141.602"/>
<text text-anchor="middle" x="487" y="-337.65" style="font-family:Times New Roman;font-size:14.00;"> $ </text>
</g>
<!-- state_alnum&#45;&gt;state_fail -->
<g id="edge20" class="edge"><title>state_alnum&#45;&gt;state_fail</title>
<path style="fill:none;stroke:black;" d="M283,-559C217,-519 47,-402 46,-254 46,-254 46,-254 46,-110 46,-71 78,-71 111,-54 142,-38 180,-28 207,-24"/>
<polygon style="fill:black;stroke:black;" points="207.881,-27.3933 217,-22 206.508,-20.5292 207.881,-27.3933"/>
<text text-anchor="middle" x="71" y="-293.65" style="font-family:Times New Roman;font-size:14.00;"> ^, ] </text>
</g>
<!-- state_alnumS&#45;&gt;state_alnum -->
<g id="edge22" class="edge"><title>state_alnumS&#45;&gt;state_alnum</title>
<path style="fill:none;stroke:black;" d="M363,-495C354,-501 344,-509 336,-518 329,-525 324,-534 320,-543"/>
<polygon style="fill:black;stroke:black;" points="316.863,-541.44 316,-552 323.26,-544.283 316.863,-541.44"/>
<text text-anchor="middle" x="364" y="-521.65" style="font-family:Times New Roman;font-size:14.00;"> :alnum:, . </text>
</g>
<!-- state_alnumS&#45;&gt;state_bracketB -->
<g id="edge24" class="edge"><title>state_alnumS&#45;&gt;state_bracketB</title>
<path style="fill:none;stroke:black;" d="M363,-461C341,-450 310,-434 283,-422 265,-414 244,-406 227,-400"/>
<polygon style="fill:black;stroke:black;" points="227.584,-396.521 217,-397 225.573,-403.226 227.584,-396.521"/>
<text text-anchor="middle" x="322" y="-425.65" style="font-family:Times New Roman;font-size:14.00;"> [ </text>
</g>
<!-- state_alnumS&#45;&gt;state_endline -->
<g id="edge26" class="edge"><title>state_alnumS&#45;&gt;state_endline</title>
<path style="fill:none;stroke:black;" d="M402,-456C404,-450 406,-444 408,-438 436,-331 457,-201 465,-142"/>
<polygon style="fill:black;stroke:black;" points="468.488,-142.299 466,-132 461.522,-141.602 468.488,-142.299"/>
<text text-anchor="middle" x="448" y="-293.65" style="font-family:Times New Roman;font-size:14.00;"> $ </text>
</g>
<!-- state_alnumS&#45;&gt;state_fail -->
<g id="edge28" class="edge"><title>state_alnumS&#45;&gt;state_fail</title>
<path style="fill:none;stroke:black;" d="M397,-456C404,-402 416,-259 376,-150 357,-99 306,-58 273,-36"/>
<polygon style="fill:black;stroke:black;" points="274.262,-32.6349 264,-30 270.379,-38.4592 274.262,-32.6349"/>
<text text-anchor="middle" x="418" y="-249.65" style="font-family:Times New Roman;font-size:14.00;"> ^, ], * </text>
</g>
<!-- state_bracketA -->
<g id="node5" class="node"><title>state_bracketA</title>
<ellipse style="fill:none;stroke:black;" cx="166" cy="-298" rx="38.8263" ry="18"/>
<text text-anchor="middle" x="166" y="-293.65" style="font-family:Times New Roman;font-size:14.00;">BracketA</text>
</g>
<!-- state_bracketB&#45;&gt;state_bracketA -->
<g id="edge38" class="edge"><title>state_bracketB&#45;&gt;state_bracketA</title>
<path style="fill:none;stroke:black;" d="M181,-368C178,-356 175,-340 172,-326"/>
<polygon style="fill:black;stroke:black;" points="175.393,-325.119 170,-316 168.529,-326.492 175.393,-325.119"/>
<text text-anchor="middle" x="205" y="-337.65" style="font-family:Times New Roman;font-size:14.00;"> :alnum:, . </text>
</g>
<!-- state_bracketB&#45;&gt;state_fail -->
<g id="edge40" class="edge"><title>state_bracketB&#45;&gt;state_fail</title>
<path style="fill:none;stroke:black;" d="M158,-373C133,-358 99,-332 99,-298 99,-298 99,-298 99,-110 99,-58 165,-35 208,-24"/>
<polygon style="fill:black;stroke:black;" points="208.881,-27.3933 218,-22 207.508,-20.5292 208.881,-27.3933"/>
<text text-anchor="middle" x="132" y="-201.65" style="font-family:Times New Roman;font-size:14.00;"> ^, [, ], *, $ </text>
</g>
<!-- state_bracketA&#45;&gt;state_bracketA -->
<g id="edge42" class="edge"><title>state_bracketA&#45;&gt;state_bracketA</title>
<path style="fill:none;stroke:black;" d="M201,-306C213,-306 223,-304 223,-298 223,-294 218,-292 211,-291"/>
<polygon style="fill:black;stroke:black;" points="211.299,-287.512 201,-290 210.602,-294.478 211.299,-287.512"/>
<text text-anchor="middle" x="251" y="-293.65" style="font-family:Times New Roman;font-size:14.00;"> :alnum:, . </text>
</g>
<!-- state_bracketE -->
<g id="node6" class="node"><title>state_bracketE</title>
<ellipse style="fill:none;stroke:black;" cx="316" cy="-206" rx="38.1203" ry="18"/>
<ellipse style="fill:none;stroke:black;" cx="316" cy="-206" rx="42.0732" ry="22"/>
<text text-anchor="middle" x="316" y="-201.65" style="font-family:Times New Roman;font-size:14.00;">BracketE</text>
</g>
<!-- state_bracketA&#45;&gt;state_bracketE -->
<g id="edge44" class="edge"><title>state_bracketA&#45;&gt;state_bracketE</title>
<path style="fill:none;stroke:black;" d="M190,-283C214,-268 252,-245 280,-228"/>
<polygon style="fill:black;stroke:black;" points="281.958,-230.916 289,-223 278.559,-224.797 281.958,-230.916"/>
<text text-anchor="middle" x="254" y="-249.65" style="font-family:Times New Roman;font-size:14.00;"> ] </text>
</g>
<!-- state_bracketA&#45;&gt;state_fail -->
<g id="edge46" class="edge"><title>state_bracketA&#45;&gt;state_fail</title>
<path style="fill:none;stroke:black;" d="M171,-280C184,-232 220,-102 236,-46"/>
<polygon style="fill:black;stroke:black;" points="239.479,-46.584 239,-36 232.774,-44.5725 239.479,-46.584"/>
<text text-anchor="middle" x="233" y="-153.65" style="font-family:Times New Roman;font-size:14.00;"> ^, $, [, * </text>
</g>
<!-- state_bracketE&#45;&gt;state_alnum -->
<g id="edge48" class="edge"><title>state_bracketE&#45;&gt;state_alnum</title>
<path style="fill:none;stroke:black;" d="M321,-228C322,-234 323,-240 324,-246 324,-253 324,-254 324,-262 321,-363 314,-485 311,-542"/>
<polygon style="fill:black;stroke:black;" points="307.512,-541.701 310,-552 314.478,-542.398 307.512,-541.701"/>
<text text-anchor="middle" x="346" y="-381.65" style="font-family:Times New Roman;font-size:14.00;"> :alnum:, . </text>
</g>
<!-- state_bracketE&#45;&gt;state_bracketB -->
<g id="edge50" class="edge"><title>state_bracketE&#45;&gt;state_bracketB</title>
<path style="fill:none;stroke:black;" d="M315,-228C313,-252 307,-289 289,-316 272,-340 245,-357 223,-369"/>
<polygon style="fill:black;stroke:black;" points="221.042,-366.084 214,-374 224.441,-372.203 221.042,-366.084"/>
<text text-anchor="middle" x="309" y="-293.65" style="font-family:Times New Roman;font-size:14.00;"> [ </text>
</g>
<!-- state_bracketE&#45;&gt;state_endline -->
<g id="edge52" class="edge"><title>state_bracketE&#45;&gt;state_endline</title>
<path style="fill:none;stroke:black;" d="M343,-189C368,-173 407,-149 434,-131"/>
<polygon style="fill:black;stroke:black;" points="435.958,-133.916 443,-126 432.559,-127.797 435.958,-133.916"/>
<text text-anchor="middle" x="408" y="-153.65" style="font-family:Times New Roman;font-size:14.00;"> $ </text>
</g>
<!-- state_bracketE&#45;&gt;state_fail -->
<g id="edge54" class="edge"><title>state_bracketE&#45;&gt;state_fail</title>
<path style="fill:none;stroke:black;" d="M308,-184C295,-149 269,-83 255,-46"/>
<polygon style="fill:black;stroke:black;" points="257.964,-43.9849 251,-36 251.464,-46.5847 257.964,-43.9849"/>
<text text-anchor="middle" x="305" y="-105.65" style="font-family:Times New Roman;font-size:14.00;"> ^, ], * </text>
</g>
<!-- state_startline&#45;&gt;state_alnum -->
<g id="edge30" class="edge"><title>state_startline&#45;&gt;state_alnum</title>
<path style="fill:none;stroke:black;" d="M309,-648C309,-636 309,-620 309,-606"/>
<polygon style="fill:black;stroke:black;" points="312.5,-606 309,-596 305.5,-606 312.5,-606"/>
<text text-anchor="middle" x="337" y="-617.65" style="font-family:Times New Roman;font-size:14.00;"> :alnum:, . </text>
</g>
<!-- state_startline&#45;&gt;state_bracketB -->
<g id="edge32" class="edge"><title>state_startline&#45;&gt;state_bracketB</title>
<path style="fill:none;stroke:black;" d="M290,-650C263,-628 217,-583 197,-534 181,-495 181,-445 182,-414"/>
<polygon style="fill:black;stroke:black;" points="185.488,-414.299 183,-404 178.522,-413.602 185.488,-414.299"/>
<text text-anchor="middle" x="203" y="-521.65" style="font-family:Times New Roman;font-size:14.00;"> [ </text>
</g>
<!-- state_startline&#45;&gt;state_endline -->
<g id="edge34" class="edge"><title>state_startline&#45;&gt;state_endline</title>
<path style="fill:none;stroke:black;" d="M342,-659C401,-645 521,-612 521,-574 521,-574 521,-574 521,-206 521,-181 507,-156 494,-138"/>
<polygon style="fill:black;stroke:black;" points="496.219,-135.221 487,-130 490.951,-139.831 496.219,-135.221"/>
<text text-anchor="middle" x="528" y="-381.65" style="font-family:Times New Roman;font-size:14.00;"> $ </text>
</g>
<!-- state_startline&#45;&gt;state_fail -->
<g id="edge36" class="edge"><title>state_startline&#45;&gt;state_fail</title>
<path style="fill:none;stroke:black;" d="M343,-661C412,-650 563,-620 563,-574 563,-574 563,-574 563,-110 563,-52 365,-28 281,-21"/>
<polygon style="fill:black;stroke:black;" points="281.299,-17.5125 271,-20 280.602,-24.4778 281.299,-17.5125"/>
<text text-anchor="middle" x="582" y="-337.65" style="font-family:Times New Roman;font-size:14.00;"> ^, *, ] </text>
</g>
<!-- state_endline&#45;&gt;state_fail -->
<g id="edge58" class="edge"><title>state_endline&#45;&gt;state_fail</title>
<path style="fill:none;stroke:black;" d="M451,-91C439,-78 422,-63 404,-54 364,-34 315,-25 281,-21"/>
<polygon style="fill:black;stroke:black;" points="281.299,-17.5125 271,-20 280.602,-24.4778 281.299,-17.5125"/>
<text text-anchor="middle" x="443" y="-57.65" style="font-family:Times New Roman;font-size:14.00;"> Any </text>
</g>
<!-- state_fail&#45;&gt;state_fail -->
<g id="edge56" class="edge"><title>state_fail&#45;&gt;state_fail</title>
<path style="fill:none;stroke:black;" d="M269,-26C280,-27 289,-24 289,-18 289,-14 285,-11 279,-10"/>
<polygon style="fill:black;stroke:black;" points="279,-6.5001 269,-10 279,-13.5001 279,-6.5001"/>
<text text-anchor="middle" x="304" y="-13.65" style="font-family:Times New Roman;font-size:14.00;"> Any </text>
</g>
</g>
</svg>
